<svg width="80" height="80" xmlns="http://www.w3.org/2000/svg">
    <path d="m56.127 51.583-.394-.394a1.798 1.798 0 0 1 0-2.535 1.798 1.798 0 0 1 2.535 0l3.377 3.378c.697.697.697 1.83.001 2.534a1.79 1.79 0 0 1-2.535.001l-.445-.445A24.806 24.806 0 0 1 40 62.56a24.806 24.806 0 0 1-18.666-8.438l-.452.453a1.791 1.791 0 1 1-2.535-2.535l3.378-3.378a1.798 1.798 0 0 1 2.534 0c.697.697.697 1.83 0 2.535l-.385.385A21.232 21.232 0 0 0 40 58.976c6.228 0 12.061-2.688 16.127-7.393zm3.02-43.199a1.79 1.79 0 0 1-1.787-1.788c0-.983.805-1.789 1.788-1.789h7.896a8.16 8.16 0 0 1 8.156 8.157v8.046a1.79 1.79 0 0 1-1.788 1.789 1.794 1.794 0 0 1-1.788-1.789v-8.053a4.577 4.577 0 0 0-4.572-4.573h-7.904zm12.48 50.57a1.79 1.79 0 0 1 1.777-1.589c.983 0 1.789.806 1.789 1.789v7.89a8.16 8.16 0 0 1-8.156 8.156h-7.964a1.79 1.79 0 0 1-1.788-1.788c0-.983.805-1.789 1.788-1.789h7.964a4.577 4.577 0 0 0 4.572-4.572v-8.097h.018zm-50.433 12.68c.894.1 1.588.86 1.588 1.778 0 .983-.805 1.788-1.788 1.788h-8.038A8.16 8.16 0 0 1 4.8 67.043v-7.942a1.79 1.79 0 0 1 1.788-1.788c.983 0 1.788.805 1.788 1.788v7.942a4.577 4.577 0 0 0 4.572 4.573h8.246v.018zM8.384 20.996a1.79 1.79 0 0 1-1.788 1.788 1.794 1.794 0 0 1-1.789-1.788v-8.04A8.16 8.16 0 0 1 12.963 4.8h8.076a1.79 1.79 0 0 1 1.788 1.788c0 .983-.806 1.789-1.788 1.789h-8.083a4.577 4.577 0 0 0-4.572 4.572v8.047zm18.888 11.251a6.562 6.562 0 0 1 0-13.122 6.562 6.562 0 0 1 0 13.122zm25.456 0a6.562 6.562 0 0 1 0-13.122 6.562 6.562 0 0 1 0 13.122zM38.212 36.82A1.79 1.79 0 0 1 40 35.03a1.79 1.79 0 0 1 1.788 1.789v9.545A1.79 1.79 0 0 1 40 48.153a1.79 1.79 0 0 1-1.788-1.788V36.82zm-10.94-8.15a2.982 2.982 0 0 0 2.984-2.984 2.982 2.982 0 0 0-2.984-2.984 2.982 2.982 0 0 0-2.984 2.984 2.987 2.987 0 0 0 2.984 2.984zm25.456 0a2.982 2.982 0 0 0 2.984-2.984 2.982 2.982 0 0 0-2.984-2.984 2.982 2.982 0 0 0-2.984 2.984 2.982 2.982 0 0 0 2.984 2.984z" fill="#FFF" fill-rule="nonzero" stroke="#FFF" stroke-width=".4"/>
</svg>
